<?xml version="1.0" standalone="no"?>
<!DOCTYPE svg PUBLIC "-//W3C//DTD SVG 20010904//EN"
 "http://www.w3.org/TR/2001/REC-SVG-20010904/DTD/svg10.dtd">
<svg version="1.0" xmlns="http://www.w3.org/2000/svg"
 width="600.000000pt" height="443.000000pt" viewBox="0 0 600.000000 443.000000"
 preserveAspectRatio="xMidYMid meet">
<metadata>
Created by potrace 1.15, written by Peter Selinger 2001-2017
</metadata>
<g transform="translate(0.000000,443.000000) scale(0.100000,-0.100000)"
fill="#404040" stroke="none">
<path d="M88 4410 c-61 -33 -83 -73 -83 -156 0 -60 4 -76 26 -105 l25 -34 -17
-45 c-47 -120 -13 -216 142 -399 34 -40 53 -68 42 -60 -19 11 -24 9 -48 -17
-14 -16 -41 -58 -58 -94 -29 -60 -32 -73 -31 -160 0 -116 11 -153 117 -415 77
-190 81 -204 81 -275 -1 -89 -19 -149 -84 -280 -106 -213 -107 -322 -5 -550
59 -130 61 -142 35 -165 -25 -23 -51 -12 -61 26 -6 22 -7 21 -8 -8 -1 -30 20
-63 40 -63 15 0 53 21 61 34 15 22 7 82 -18 141 -117 276 -118 342 -11 560 73
148 90 208 90 315 1 77 -20 156 -69 267 -13 29 -20 53 -15 53 22 0 117 168
137 245 37 138 6 275 -90 399 -24 31 -26 36 -8 25 20 -12 25 -10 66 30 66 65
98 144 104 258 l5 93 -27 0 c-26 0 -26 -1 -26 -68 0 -95 -21 -157 -77 -226
-26 -33 -53 -61 -59 -63 -14 -5 -128 137 -159 198 -33 65 -39 107 -21 159 10
31 12 48 5 56 -6 7 15 -1 45 -17 l56 -31 0 31 c0 21 -6 31 -21 36 -29 10 -87
63 -105 96 -18 36 -18 63 2 105 30 62 114 92 178 63 20 -9 29 -9 41 1 23 19
18 30 -20 46 -49 20 -132 17 -177 -6z m190 -867 c91 -143 82 -301 -26 -473
l-35 -55 -19 45 c-68 158 -85 296 -50 388 19 50 79 141 93 142 4 0 21 -21 37
-47z"/>
<path d="M443 4420 c-76 -16 -160 -69 -204 -132 l-22 -30 34 7 c19 4 50 21 69
39 19 17 28 24 22 14 -9 -11 -10 -18 -3 -23 6 -3 15 -14 20 -24 9 -15 6 -17
-21 -13 -40 6 -133 -23 -182 -56 -48 -33 -54 -47 -26 -62 17 -9 25 -8 39 4 10
9 20 16 23 16 3 0 8 -29 10 -65 4 -72 22 -105 78 -142 44 -30 110 -32 110 -3
0 14 -10 22 -38 30 -68 18 -108 81 -97 154 4 23 6 45 5 51 -2 13 28 23 72 24
26 1 38 6 40 19 5 19 28 -76 28 -113 0 -13 6 -26 13 -28 6 -3 -23 -6 -65 -6
-79 -1 -90 -7 -69 -40 7 -11 25 -12 82 -7 111 11 149 23 149 47 0 19 -4 20
-42 14 -29 -4 -38 -3 -29 3 11 8 12 24 7 67 l-7 58 23 -15 c47 -32 63 -65 63
-136 0 -37 4 -70 8 -73 5 -3 -10 -9 -32 -13 -36 -5 -41 -10 -41 -32 0 -22 3
-25 23 -20 133 36 238 -7 208 -87 -24 -64 -108 -36 -125 41 -7 30 -15 42 -28
42 -14 0 -18 -8 -18 -40 0 -77 49 -130 119 -130 66 0 111 44 111 109 0 69 -40
107 -128 122 l-59 11 7 44 c6 41 20 72 20 46 0 -33 91 3 256 100 150 89 232
120 314 120 67 0 132 -19 182 -54 31 -22 42 -22 57 -4 9 11 6 18 -16 34 -88
61 -173 83 -279 71 -77 -10 -163 -47 -319 -139 -55 -32 -126 -70 -157 -84
l-58 -26 0 30 c0 54 -102 138 -140 115 -5 -3 -10 -1 -10 6 0 7 -12 27 -26 46
-14 19 -24 35 -23 37 21 13 70 27 113 32 89 11 190 -28 280 -106 30 -27 38
-30 57 -20 21 12 20 13 -22 56 -51 53 -142 100 -218 114 -61 11 -79 11 -138 0z"/>
<path d="M1670 4349 c-70 -10 -118 -31 -271 -117 -149 -84 -205 -104 -284
-105 -60 -1 -125 22 -197 70 -25 16 -29 16 -43 2 -14 -14 -11 -19 30 -48 93
-67 215 -88 321 -56 27 8 121 55 209 105 88 49 185 97 215 106 84 24 173 16
250 -24 35 -18 65 -30 67 -28 7 7 -53 45 -109 70 -65 29 -116 36 -188 25z"/>
<path d="M2395 4293 c-80 -9 -163 -29 -310 -73 -235 -72 -294 -83 -396 -78
-75 3 -97 9 -150 36 -55 28 -65 31 -77 18 -13 -13 -9 -18 34 -45 128 -82 269
-78 554 14 271 87 283 90 425 89 146 0 197 -9 373 -65 68 -21 138 -39 156 -39
64 0 111 67 71 100 -8 6 -34 14 -57 16 l-43 4 32 -12 c18 -7 40 -20 48 -29 15
-15 15 -17 0 -33 -26 -25 -74 -19 -194 24 -152 54 -356 86 -466 73z"/>
<path d="M5765 2808 c-11 -6 -23 -16 -27 -22 -15 -22 -7 -82 18 -141 117 -276
118 -342 11 -560 -73 -148 -90 -208 -90 -315 -1 -77 20 -156 69 -267 13 -29
20 -53 15 -53 -22 0 -117 -168 -137 -245 -37 -138 -6 -275 90 -399 24 -31 26
-36 8 -25 -20 12 -25 10 -66 -30 -66 -65 -98 -144 -104 -258 l-5 -93 27 0 c26
0 26 1 26 68 0 95 21 157 77 226 26 33 53 61 59 63 14 5 128 -137 159 -198 33
-65 39 -107 21 -159 -10 -31 -12 -48 -5 -56 6 -7 -15 1 -45 17 l-56 31 0 -31
c0 -21 6 -31 21 -36 29 -10 87 -63 105 -96 18 -36 18 -63 -2 -105 -30 -62
-114 -92 -178 -63 -20 9 -29 9 -41 -1 -23 -19 -18 -30 20 -46 82 -34 190 -7
237 58 19 27 23 46 23 104 0 60 -4 76 -26 105 l-25 34 17 45 c47 120 13 216
-142 399 -34 40 -53 68 -42 60 19 -11 24 -9 48 17 14 16 41 58 58 94 29 60 32
73 31 160 0 116 -11 153 -117 415 -77 190 -81 204 -81 275 1 89 19 149 84 280
106 213 107 322 5 550 -59 130 -61 142 -35 165 25 23 51 12 61 -26 6 -22 7
-21 8 8 1 32 -20 63 -42 63 -7 0 -21 -6 -32 -12z m78 -1543 c15 -45 21 -85 21
-160 1 -90 -2 -106 -27 -155 -15 -30 -39 -68 -53 -84 l-26 -30 -19 25 c-10 13
-31 49 -47 79 -24 49 -27 66 -27 155 0 110 14 156 83 265 l35 55 19 -45 c11
-25 29 -72 41 -105z"/>
<path d="M5301 656 c-31 -17 -50 -53 -51 -93 0 -70 39 -109 128 -124 l59 -11
-7 -44 c-6 -41 -20 -72 -20 -46 0 33 -91 -3 -256 -100 -150 -89 -232 -120
-314 -120 -67 0 -132 19 -182 54 -31 22 -42 22 -57 4 -9 -11 -6 -18 16 -34 88
-61 173 -83 279 -71 77 10 163 47 319 139 55 32 126 70 158 84 l57 26 0 -30
c0 -54 102 -138 140 -115 5 3 10 1 10 -6 0 -7 12 -27 26 -46 14 -19 24 -35 23
-37 -21 -13 -70 -27 -113 -32 -89 -11 -190 28 -280 106 -30 27 -38 30 -57 20
-21 -12 -20 -13 22 -56 79 -81 218 -132 324 -119 91 12 187 67 236 137 l22 30
-34 -7 c-19 -4 -50 -21 -69 -39 -19 -17 -28 -24 -22 -14 9 11 10 18 3 23 -6 3
-15 14 -20 24 -9 15 -6 17 21 13 40 -6 133 23 182 56 48 33 54 47 26 62 -17 9
-25 8 -39 -4 -10 -9 -20 -16 -23 -16 -3 0 -8 29 -10 65 -4 72 -22 105 -78 143
-44 29 -110 31 -110 2 0 -14 10 -22 38 -30 69 -18 108 -81 96 -156 -3 -24 -5
-47 -4 -51 2 -11 -31 -22 -72 -22 -26 -1 -38 -6 -40 -18 -5 -20 -28 75 -28
112 0 13 -6 26 -12 28 -7 3 22 6 65 6 78 1 89 7 68 40 -7 11 -25 12 -82 7
-111 -11 -149 -23 -149 -47 0 -19 4 -20 43 -14 28 4 37 3 28 -3 -11 -8 -12
-24 -7 -67 l7 -58 -23 15 c-47 32 -63 65 -63 136 0 37 -4 70 -8 73 -5 3 10 9
32 13 36 5 41 10 41 32 0 22 -3 25 -22 20 -134 -36 -239 7 -209 87 24 64 108
36 125 -41 7 -30 15 -42 28 -42 14 0 18 8 18 40 0 23 -7 54 -15 70 -28 54
-109 76 -164 46z"/>
<path d="M4765 332 c-28 -10 -117 -55 -199 -101 -184 -104 -237 -123 -332
-119 -57 3 -84 10 -134 36 -69 35 -89 37 -41 3 70 -50 141 -74 216 -73 93 1
153 22 317 115 158 89 213 109 293 110 60 1 125 -22 197 -70 25 -16 29 -16 43
-2 14 14 11 19 -30 48 -96 69 -225 89 -330 53z"/>
<path d="M4148 321 c-48 -11 -143 -37 -210 -59 -250 -82 -271 -87 -413 -86
-146 0 -197 9 -373 65 -68 21 -138 39 -156 39 -64 0 -111 -67 -71 -100 8 -6
34 -14 57 -16 l43 -4 -32 12 c-18 7 -40 20 -48 29 -15 15 -15 17 0 33 26 25
74 19 194 -24 141 -50 254 -71 389 -72 125 -1 171 7 387 72 236 72 294 83 396
78 75 -3 97 -9 150 -36 55 -28 65 -31 77 -18 13 13 9 18 -34 45 -62 40 -101
51 -194 56 -51 3 -103 -1 -162 -14z"/>
</g>
</svg>
