<svg xmlns="http://www.w3.org/2000/svg" width="746.151" height="16.98" viewBox="0 0 746.151 16.98">
  <path id="Path_2" data-name="Path 2" d="M781.857,659.193l-26.651-.96c-10.29-.45-21.9-.827-34.565-.6H449.914c-8.163,0-17.914-6.091-17.914-6.091s-9.751,6.091-17.914,6.091H143.36c-12.665-.224-24.275.153-34.565.6l-26.651.96-23.219.836,23.219.838,26.651.96c10.29.45,21.9.826,34.565.6H414.087c8.163,0,17.914,6.091,17.914,6.091s9.751-6.091,17.914-6.091H720.641c12.665.224,24.275-.152,34.565-.6l26.651-.96,23.219-.838Z" transform="translate(-58.925 -651.539)" fill="#202020"/>
</svg>
