<?xml version="1.0" standalone="no"?>
<!DOCTYPE svg PUBLIC "-//W3C//DTD SVG 20010904//EN"
 "http://www.w3.org/TR/2001/REC-SVG-20010904/DTD/svg10.dtd">
<svg version="1.0" xmlns="http://www.w3.org/2000/svg"
 width="1946.000000pt" height="2400.000000pt" viewBox="0 0 1946.000000 2400.000000"
 preserveAspectRatio="xMidYMid meet">
<metadata>
Created by potrace 1.15, written by Peter Selinger 2001-2017
</metadata>
<g transform="translate(0.000000,2400.000000) scale(0.100000,-0.100000)"
fill="#404040" stroke="none">
<path d="M3285 23989 c-141 -27 -235 -80 -290 -161 -66 -98 -95 -229 -129
-582 -8 -81 -19 -153 -24 -158 -16 -16 -131 -28 -274 -28 l-136 0 -6 28 c-19
97 -38 217 -55 349 -13 109 -26 166 -42 200 -29 61 -112 144 -175 176 -100 50
-304 81 -544 82 -174 0 -176 0 -274 -34 -130 -45 -211 -100 -253 -170 -44 -73
-62 -161 -82 -399 -12 -140 -21 -206 -30 -212 -7 -4 -59 -11 -115 -15 -232
-16 -332 -49 -420 -139 -62 -63 -138 -181 -174 -269 -23 -57 -25 -74 -24 -202
1 -215 33 -345 118 -486 73 -121 162 -220 231 -256 59 -32 230 -86 311 -99 29
-4 47 -14 54 -28 8 -14 12 -88 12 -215 l1 -194 -210 -52 c-309 -76 -408 -122
-499 -232 -66 -79 -134 -197 -152 -265 -17 -64 -20 -435 -4 -518 21 -110 129
-318 217 -419 53 -61 115 -102 269 -180 82 -41 150 -67 212 -82 50 -11 103
-30 118 -41 l26 -21 -7 -7346 c-4 -4040 -8 -7347 -9 -7348 0 -1 -50 -12 -111
-26 -195 -44 -302 -107 -486 -285 -156 -150 -228 -260 -273 -413 -63 -219 -72
-563 -20 -788 48 -207 148 -255 633 -307 84 -8 175 -22 202 -30 44 -13 49 -18
56 -52 12 -62 9 -340 -4 -353 -7 -7 -97 -24 -200 -40 -324 -47 -410 -74 -489
-153 -91 -92 -122 -222 -131 -551 -8 -293 16 -422 100 -547 49 -73 91 -100
190 -123 87 -20 309 -53 412 -61 44 -4 83 -12 87 -18 4 -6 8 -29 8 -51 0 -22
7 -97 15 -167 23 -200 61 -276 182 -368 83 -63 187 -114 273 -136 131 -33 371
-3 549 69 187 75 317 203 380 371 17 47 51 216 51 259 0 9 318 8 380 -1 53 -8
58 -17 90 -152 29 -122 93 -318 127 -384 41 -82 90 -142 156 -192 81 -61 201
-121 280 -139 71 -17 244 -19 334 -5 163 27 399 122 511 208 129 97 226 297
287 586 14 66 28 122 30 124 11 11 4466 13 6685 3 2869 -13 3565 -22 3588 -45
9 -9 16 -37 17 -69 2 -39 13 -77 43 -140 140 -299 396 -552 645 -638 120 -41
313 -63 507 -56 221 8 348 41 444 114 100 77 122 150 151 512 18 228 27 290
45 301 30 19 301 47 344 36 35 -9 64 -42 76 -88 6 -20 19 -108 30 -195 33
-259 77 -364 184 -438 116 -80 337 -120 611 -112 140 4 186 10 260 30 121 34
180 62 230 108 78 72 105 175 125 479 6 96 13 185 16 196 3 20 13 22 111 28
289 19 408 78 512 253 23 39 56 104 74 145 30 69 32 79 31 193 0 134 -19 240
-65 379 -43 128 -95 224 -141 255 -20 14 -42 38 -49 54 -17 40 -58 71 -145
107 -77 32 -266 80 -316 80 l-28 0 0 153 c0 155 12 273 28 289 5 5 83 26 173
48 260 62 363 105 447 190 79 79 175 242 207 355 14 48 16 81 11 175 -17 296
-88 520 -214 680 -124 156 -272 240 -510 289 -51 10 -96 22 -100 26 -10 9 -8
14476 2 14608 l8 107 62 0 c53 0 75 6 152 44 161 79 342 223 453 362 143 177
195 355 207 709 15 410 -84 586 -367 655 -58 14 -146 23 -289 30 -113 6 -215
13 -227 15 -47 11 -57 46 -61 209 -5 226 -7 225 323 277 214 34 270 54 335
120 127 131 176 330 167 673 -8 305 -47 422 -175 528 -48 40 -110 54 -352 83
-118 13 -228 28 -245 33 -44 12 -56 48 -66 196 -4 72 -15 154 -23 181 -34 113
-124 204 -271 275 -263 126 -579 99 -839 -71 -101 -66 -177 -142 -211 -209
-30 -60 -81 -205 -110 -313 -15 -56 -23 -71 -44 -79 -14 -6 -105 -13 -202 -16
-167 -4 -177 -4 -182 14 -4 11 -26 96 -51 189 -25 94 -54 196 -65 228 -53 153
-124 252 -234 331 -150 106 -210 120 -479 114 -222 -6 -263 -16 -433 -100
-257 -129 -360 -250 -468 -549 -70 -191 -57 -175 -142 -183 -92 -8 -5426 -25
-8077 -26 l-1997 0 -5 33 c-3 17 -8 52 -11 76 -30 224 -330 603 -576 726 -137
70 -184 77 -479 81 -146 1 -287 -2 -315 -7z m396 -100 c250 -25 395 -89 561
-248 226 -215 339 -474 240 -552 -23 -18 -37 -20 -94 -17 -58 3 -72 8 -98 33
-17 16 -37 50 -44 76 -57 190 -245 346 -490 409 -168 43 -388 10 -459 -68 -38
-42 -40 -73 -46 -719 -3 -347 -8 -634 -11 -637 -3 -2 -47 -11 -99 -20 -110
-17 -134 -11 -153 43 -17 47 -16 858 1 1146 19 321 32 375 108 451 97 97 298
133 584 103z m12445 -128 c159 -79 246 -189 299 -378 25 -92 60 -311 51 -320
-9 -9 -177 16 -193 29 -20 16 -38 54 -69 140 -56 154 -123 246 -211 289 -40
19 -56 21 -137 16 -173 -11 -396 -94 -467 -176 -83 -93 -138 -261 -160 -482
-14 -151 -7 -336 17 -402 36 -106 212 -253 419 -353 130 -62 337 -138 408
-148 113 -17 107 -15 128 -59 22 -49 27 -175 7 -195 -19 -19 -158 -14 -265 9
-318 69 -665 240 -840 415 -134 133 -173 261 -173 571 0 707 201 1015 705
1082 39 5 142 9 231 8 l161 -2 89 -44z m-14326 19 c188 -19 287 -57 364 -140
100 -107 146 -298 115 -476 -15 -85 -31 -98 -128 -102 -105 -5 -111 2 -121
112 -11 114 -56 214 -132 289 -46 46 -61 55 -112 65 -128 26 -326 10 -358 -28
-40 -49 -55 -215 -68 -740 -11 -446 -21 -585 -44 -608 -8 -8 -46 -16 -94 -19
-66 -5 -86 -3 -107 11 -53 35 -53 34 -44 656 4 328 12 596 18 625 16 76 85
208 136 259 74 73 180 102 390 105 50 0 133 -4 185 -9z m16234 -90 c108 -27
226 -91 280 -151 55 -61 66 -103 73 -285 l6 -141 -24 -6 c-13 -4 -66 -7 -116
-7 -103 0 -107 3 -132 82 -18 54 -84 152 -122 179 -31 22 -43 24 -154 24 -145
0 -214 -19 -279 -77 -88 -77 -100 -169 -92 -708 4 -223 9 -426 13 -451 l5 -46
-156 -18 c-124 -15 -159 -16 -169 -6 -17 17 -16 798 2 970 30 291 90 403 290
539 160 110 193 120 367 121 99 1 149 -4 208 -19z m-3225 -699 l24 -13 -7
-162 c-4 -88 -10 -171 -13 -183 l-5 -23 -967 -2 c-1438 -4 -1486 -4 -4446 10
-1507 8 -3471 17 -4365 21 -1224 5 -1630 9 -1646 18 -32 18 -42 57 -47 184
l-4 117 921 6 c506 3 2264 11 3906 17 1642 6 3383 15 3870 19 1457 12 2750 8
2779 -9z m4048 -20 c87 -9 97 -12 180 -63 102 -62 141 -111 176 -222 20 -63
22 -92 22 -256 -1 -280 -39 -437 -133 -541 -55 -61 -114 -92 -218 -114 -94
-20 -306 -25 -346 -7 -27 11 -28 13 -28 94 0 83 12 124 40 139 8 4 55 15 103
24 137 24 261 98 305 179 21 40 29 268 12 349 -15 74 -34 95 -95 107 -82 15
-384 31 -850 43 l-440 12 -3 133 -3 132 593 0 c326 0 634 -5 685 -9z m-1823
-38 c10 -65 7 -178 -6 -195 -18 -23 -192 -35 -773 -53 -258 -8 -553 -20 -654
-26 -237 -15 -225 -24 -229 166 l-4 135 714 3 c392 1 765 3 829 5 l116 2 7
-37z m-14164 -118 l0 -145 -720 0 -720 0 0 140 0 140 448 3 c246 1 570 3 720
5 l272 2 0 -145z m-1916 113 c3 -13 7 -68 8 -123 l3 -99 -141 -25 -141 -25 -7
-120 c-13 -239 28 -388 121 -442 102 -61 250 -71 756 -54 202 7 370 10 372 8
12 -12 35 -268 26 -291 -15 -38 -61 -42 -446 -41 -465 1 -679 22 -803 79 -90
41 -248 209 -307 325 -52 103 -69 284 -39 428 19 95 92 249 145 307 68 74 131
91 351 94 94 1 98 0 102 -21z m17441 -905 c7 -585 2 -810 -21 -833 -8 -8 -126
-29 -246 -44 l-48 -6 0 518 c1 557 11 867 30 920 7 19 22 37 34 42 11 5 71 9
132 9 l112 1 7 -607z m-1913 527 c36 -27 46 -77 63 -317 66 -897 99 -997 352
-1072 46 -14 78 -29 88 -43 18 -27 21 -144 4 -182 -29 -62 -177 -62 -339 0
-134 51 -169 92 -220 254 -80 256 -130 600 -186 1276 l-5 71 83 15 c113 21
131 21 160 -2z m-14159 -287 c10 -421 8 -883 -4 -926 -12 -46 -39 -64 -104
-71 -27 -3 -74 -8 -102 -11 l-53 -6 0 646 0 645 128 0 129 0 6 -277z m2155
271 c50 -7 52 -8 52 -38 0 -68 -103 -240 -198 -328 -177 -166 -560 -336 -917
-407 -177 -35 -309 -45 -638 -45 -377 -1 -347 -12 -347 130 0 118 8 140 57
153 45 12 207 27 383 36 202 10 408 24 509 36 171 20 449 123 599 223 85 57
125 98 160 167 21 42 35 57 62 66 38 13 194 17 278 7z m1172 -14 c492 -5 1980
-12 3305 -15 2761 -7 5746 -23 5808 -31 l43 -6 57 -112 c31 -61 85 -149 121
-196 84 -112 214 -236 260 -248 19 -6 50 -25 69 -44 83 -84 671 -308 809 -310
104 0 131 -34 142 -180 9 -114 28 -184 75 -284 48 -101 145 -207 230 -253 79
-42 198 -72 293 -73 78 -1 108 10 108 38 0 21 18 17 30 -6 6 -11 22 -75 35
-142 61 -303 216 -696 361 -915 90 -136 225 -255 384 -339 36 -19 82 -48 103
-65 l37 -30 0 -7318 0 -7318 -61 -17 c-121 -33 -246 -114 -355 -228 -60 -63
-144 -178 -144 -197 0 -6 -14 -25 -31 -42 -39 -40 -79 -124 -79 -166 0 -17 -5
-35 -11 -39 -39 -24 -183 -460 -224 -677 -9 -48 -35 -62 -155 -86 -233 -47
-374 -99 -449 -166 -24 -22 -56 -67 -76 -109 -39 -80 -90 -271 -101 -378 -8
-82 -22 -102 -86 -118 -84 -21 -376 -123 -550 -192 -268 -106 -369 -169 -515
-321 -94 -98 -145 -174 -219 -326 l-56 -113 -4261 7 c-4117 6 -5711 16 -5885
35 -96 10 -91 6 -179 150 -106 172 -329 371 -543 484 -110 57 -404 167 -556
207 -154 41 -173 48 -185 71 -6 11 -23 87 -39 170 -47 244 -86 335 -178 419
-70 64 -161 107 -352 164 -229 69 -217 60 -245 205 -34 177 -181 558 -296 767
-91 165 -167 246 -326 350 -105 69 -179 101 -248 109 l-55 7 0 3911 c1 4646
15 9765 30 10311 10 377 20 506 41 531 5 7 24 15 42 18 93 17 294 143 383 238
194 210 433 712 475 999 19 130 45 148 274 184 180 28 269 67 361 159 95 96
173 281 177 427 1 48 -2 60 -26 89 -39 46 -24 57 92 70 164 18 484 135 786
287 299 150 344 194 516 507 71 130 102 169 127 162 9 -3 420 -10 912 -16z
m12330 -679 l0 -129 -212 -6 c-705 -20 -912 -26 -975 -26 l-70 0 -12 57 c-6
31 -11 80 -11 108 0 76 13 84 156 96 121 10 626 25 947 27 l177 2 0 -129z
m-16692 -253 c26 -13 27 -17 35 -128 13 -201 14 -1512 0 -1535 -12 -21 -101
-43 -175 -44 -49 -1 -65 24 -78 120 -11 86 -13 763 -3 1264 l6 348 94 -6 c52
-4 106 -12 121 -19z m16183 -323 c11 -570 55 -838 182 -1090 49 -99 83 -149
165 -245 35 -41 75 -94 89 -118 26 -43 26 -44 16 -173 -12 -172 -16 -176 -118
-125 -56 27 -98 59 -159 119 -180 177 -307 428 -396 777 -60 236 -104 670 -98
960 4 233 0 228 203 226 l110 -1 6 -330z m-14371 277 c75 -61 -13 -392 -127
-478 -83 -63 -362 -146 -555 -164 -62 -6 -162 -20 -223 -30 -60 -11 -155 -24
-210 -30 -106 -11 -548 -40 -552 -36 -1 1 0 70 4 153 l6 150 246 7 c524 14
882 56 1002 117 56 28 104 92 144 193 52 129 60 136 161 136 64 0 87 -4 104
-18z m15715 -492 c198 -12 331 -32 383 -59 72 -37 136 -179 155 -340 21 -186
-27 -492 -102 -646 -87 -182 -260 -365 -416 -440 -49 -24 -119 -52 -154 -61
-62 -18 -64 -17 -78 2 -11 14 -14 41 -11 111 5 108 13 122 110 173 150 80 272
255 339 485 33 114 33 275 0 360 -33 82 -83 130 -158 147 -76 17 -421 17 -906
-1 -202 -8 -370 -12 -372 -9 -3 3 -8 48 -12 101 -10 155 5 167 232 177 242 11
806 11 990 0z m-17856 -38 c10 -18 0 -129 -14 -165 -10 -23 -25 -31 -147 -73
-176 -61 -229 -96 -274 -176 -55 -102 -44 -296 28 -477 46 -117 75 -152 166
-200 164 -85 379 -141 539 -141 178 0 292 47 414 169 91 91 141 165 220 328
79 162 131 318 128 383 -2 41 2 55 21 75 36 38 115 58 200 49 l70 -7 -6 -56
c-18 -184 -36 -251 -136 -501 -112 -278 -189 -402 -348 -554 -146 -139 -247
-170 -570 -169 -381 0 -586 61 -814 242 -89 71 -116 106 -150 191 -106 261
-106 569 -1 797 71 153 108 185 285 241 133 42 223 60 307 61 60 1 74 -2 82
-17z m17467 -579 c11 -333 11 -15095 0 -15476 l-8 -289 -34 -14 c-63 -27 -209
-11 -258 27 -33 26 -44 83 -56 302 -13 239 -13 11391 0 13602 10 1580 19 2058
39 2078 16 16 80 25 197 26 l112 1 8 -257z m-17056 -7640 c0 -3770 -4 -6958
-10 -7438 -6 -497 -6 -999 -1 -1230 7 -355 0 -780 -15 -794 -8 -8 -222 -17
-264 -11 l-35 5 -7 5550 c-6 4997 3 10211 19 10403 4 50 9 66 27 77 29 19 112
32 209 34 l77 1 0 -6597z m17172 -8247 c206 -33 431 -139 553 -261 103 -102
185 -413 172 -649 -8 -135 -26 -206 -79 -311 -77 -152 -114 -180 -313 -239
-106 -31 -304 -76 -334 -76 -17 0 -14 154 4 196 17 42 87 78 183 93 35 6 78
19 97 31 49 30 104 95 134 159 23 49 26 68 25 156 0 85 -5 114 -33 195 -17 52
-50 132 -72 178 -37 78 -43 84 -97 111 -83 42 -248 98 -339 115 -179 33 -392
29 -506 -10 -161 -55 -404 -449 -483 -782 -37 -156 -73 -194 -186 -193 -109 0
-131 38 -103 176 42 202 131 442 219 590 29 49 74 131 99 180 25 50 65 113 89
142 88 105 225 195 327 214 74 13 532 3 643 -15z m-17609 -57 c13 -50 3 -187
-15 -205 -8 -8 -38 -21 -66 -29 -135 -35 -290 -180 -376 -352 -53 -106 -70
-194 -71 -358 0 -147 1 -151 30 -210 50 -99 46 -99 455 -106 190 -4 479 -7
643 -8 l297 -1 0 -37 c0 -21 3 -81 6 -134 l7 -96 -344 -7 c-189 -4 -398 -7
-464 -6 -235 2 -652 40 -713 66 -85 35 -166 133 -209 252 -36 99 -28 254 27
522 48 229 100 330 246 476 137 137 306 243 428 268 81 17 108 9 119 -35z
m652 12 c122 -58 297 -219 390 -358 106 -160 222 -538 269 -880 43 -308 43
-808 1 -839 -14 -10 -55 -14 -158 -14 l-140 0 5 218 c15 605 -62 1037 -237
1318 -49 79 -138 168 -188 189 -55 23 -61 38 -65 154 -4 113 10 220 31 233 19
12 28 10 92 -21z m16778 -339 c48 -52 54 -160 62 -1031 l6 -694 -93 6 c-111 7
-154 20 -162 50 -5 22 -16 309 -36 987 -6 184 -15 406 -21 493 -6 87 -9 161
-5 164 7 8 170 40 207 42 14 0 33 -7 42 -17z m-328 -1044 c-3 -73 -8 -142 -10
-154 -4 -20 -14 -21 -302 -32 -611 -25 -918 -81 -996 -184 -15 -19 -41 -66
-58 -104 -78 -174 -77 -174 -190 -174 -93 0 -105 8 -119 75 -21 100 20 263 94
379 64 99 148 138 431 196 352 72 679 109 1123 129 l34 1 -7 -132z m-15450
-39 c124 -13 176 -25 242 -56 118 -55 182 -182 234 -467 23 -130 87 -835 90
-996 3 -148 3 -148 -127 -132 -103 12 -128 24 -138 70 -3 15 -15 160 -26 322
-31 456 -60 708 -93 820 -16 57 -65 95 -183 143 -128 52 -138 59 -151 97 -7
19 -12 77 -12 128 l-1 93 33 -5 c17 -3 77 -11 132 -17z m-1277 -961 l2 -716
-62 -7 c-35 -3 -94 -5 -133 -3 l-70 3 -7 60 c-9 71 -1 827 13 1144 6 160 13
227 22 233 6 4 62 7 122 6 l110 -3 3 -717z m16102 510 c0 -90 3 -355 7 -589
l6 -427 -79 -6 c-43 -4 -105 -9 -137 -12 l-58 -5 3 553 c4 597 4 604 57 633
17 9 57 14 114 15 l87 0 0 -162z m-422 -304 c37 -11 51 -52 58 -181 l7 -120
-48 -6 c-26 -4 -107 -7 -179 -7 -249 0 -543 -29 -774 -75 -247 -50 -435 -127
-577 -235 -44 -34 -93 -68 -110 -77 -64 -35 -337 -35 -372 0 -24 24 -8 51 90
153 146 153 298 258 492 340 266 113 651 193 1050 218 79 5 334 -2 363 -10z
m1675 -17 c90 -21 174 -67 253 -140 176 -161 247 -319 248 -547 0 -179 -39
-297 -139 -421 -34 -42 -70 -74 -98 -88 -84 -41 -311 -38 -358 5 -10 9 -20 33
-24 54 -8 46 12 194 30 230 14 26 53 48 130 71 62 18 133 57 145 78 15 29 12
68 -9 154 -38 148 -106 253 -179 279 -29 10 -150 12 -563 10 l-526 -3 -18 99
c-20 109 -16 185 9 211 25 24 129 29 606 26 347 -2 437 -5 493 -18z m-16196
-13 c268 -7 240 9 250 -140 6 -89 5 -92 -18 -105 -19 -11 -118 -14 -524 -12
-275 1 -555 4 -622 8 l-123 7 0 129 0 129 403 -5 c221 -3 506 -8 634 -11z
m-1585 -30 c43 -7 43 -7 54 -156 l6 -88 -29 0 c-69 0 -230 -32 -284 -56 -67
-30 -131 -94 -159 -158 -44 -98 -52 -301 -14 -364 52 -89 209 -109 994 -131
184 -5 337 -14 353 -20 25 -10 27 -15 27 -63 0 -29 -5 -88 -12 -131 l-12 -78
-370 6 c-520 8 -821 22 -913 41 -117 24 -195 71 -257 155 -91 124 -111 443
-43 689 57 205 148 306 312 346 53 13 284 18 347 8z m2503 -13 c159 -39 431
-144 579 -225 277 -151 422 -323 471 -554 45 -210 -13 -720 -103 -907 -105
-216 -258 -338 -488 -387 -142 -31 -414 -32 -495 -3 -75 28 -203 102 -245 143
-78 76 -160 316 -179 521 l-6 73 100 -4 c84 -3 104 -7 120 -23 11 -11 33 -69
50 -130 73 -255 133 -314 327 -315 143 0 342 61 439 134 124 95 242 599 194
828 -36 170 -193 314 -501 462 -139 67 -251 108 -328 121 -25 4 -55 13 -67 21
-50 32 -87 157 -64 217 19 50 72 58 196 28z m-1119 -558 c-18 -595 -35 -865
-61 -959 -37 -131 -255 -336 -430 -405 -53 -21 -77 -23 -195 -23 -121 0 -143
3 -215 28 -155 53 -275 130 -313 201 -20 38 -31 320 -13 353 13 25 68 42 134
42 71 0 100 -32 122 -136 31 -143 35 -154 60 -166 32 -14 278 5 355 28 224 66
251 208 213 1112 l-6 152 178 0 177 0 -6 -227z m16098 211 l89 -6 -7 -562 c-4
-308 -11 -606 -17 -661 -18 -199 -55 -281 -154 -352 -102 -71 -137 -78 -395
-77 -335 2 -439 31 -559 159 -78 84 -92 127 -97 305 -5 158 11 225 58 248 43
20 151 27 165 10 7 -7 19 -56 27 -109 34 -208 89 -291 237 -350 113 -45 311
-35 370 19 60 56 62 80 67 770 l4 622 61 -5 c34 -2 102 -8 151 -11z m-1858
-38 c18 -14 19 -33 19 -688 0 -690 -3 -754 -41 -870 -10 -30 -30 -60 -56 -83
-50 -45 -162 -100 -237 -116 -72 -15 -298 -7 -446 16 -228 35 -328 87 -505
265 -199 199 -311 410 -270 509 14 35 52 51 122 51 90 0 148 -41 148 -105 0
-34 46 -118 101 -184 79 -96 223 -182 371 -223 54 -14 117 -21 238 -25 l165
-5 55 34 c91 56 95 68 95 308 0 113 -4 390 -9 615 -10 453 -7 486 42 503 43
16 185 14 208 -2z m-425 -432 c19 -11 45 -40 59 -65 23 -40 25 -57 28 -180 l4
-136 -4064 -5 c-2234 -3 -4849 -2 -5809 1 l-1745 6 18 145 c25 204 17 187 90
194 35 3 1456 10 3158 16 4027 13 7334 30 7680 40 413 12 539 8 581 -16z
m1759 -4 c147 -11 194 -23 227 -56 24 -25 25 -28 21 -154 -1 -70 -5 -130 -8
-133 -3 -2 -317 -8 -698 -12 l-693 -7 5 83 c3 46 9 133 12 192 l6 108 502 -6
c275 -3 557 -10 626 -15z m-13798 -200 c20 -65 22 -134 7 -197 l-12 -45 -326
6 c-179 4 -510 11 -736 16 -225 6 -456 10 -512 10 l-103 0 0 130 0 130 193 3
c105 1 480 2 832 2 l639 0 18 -55z"/>
</g>
</svg>
